<svg xmlns="http://www.w3.org/2000/svg" viewBox="0 0 3000 3000"><defs><style>.cls-1{fill:#231815;}.cls-1,.cls-2,.cls-3,.cls-4,.cls-5,.cls-6,.cls-7,.cls-8,.cls-9{stroke:#000;stroke-miterlimit:10;}.cls-2,.cls-4,.cls-5,.cls-6,.cls-7,.cls-8{fill:none;}.cls-2{stroke-width:30px;}.cls-4{stroke-width:40px;}.cls-5{stroke-width:50px;}.cls-6{stroke-width:35px;}.cls-7{stroke-width:48px;}.cls-8{stroke-width:60px;}.cls-9{stroke-width:49px;}</style></defs><g id="レイヤー_1" data-name="レイヤー 1"><path d="M849.3,2511.9q0,29.05-8.55,52a102.22,102.22,0,0,1-25.14,38.82q-16.61,15.87-41,24.17t-56.15,8.3q-29.79,0-53.47-7.45t-40-22.58q-16.35-15.13-25-37.72t-8.67-52.86V2322.44a7.12,7.12,0,0,1,1.47-4.39q1.45-2,5.25-3.18a54.52,54.52,0,0,1,9.88-1.95,135.48,135.48,0,0,1,15.63-.73,132.79,132.79,0,0,1,15.38.73,51.58,51.58,0,0,1,9.76,1.95,11.18,11.18,0,0,1,5.25,3.18,6.78,6.78,0,0,1,1.59,4.39V2509q0,18.8,4.64,32.59a60.06,60.06,0,0,0,13.3,22.83,55.09,55.09,0,0,0,20.76,13.55,76.53,76.53,0,0,0,27,4.51,74.33,74.33,0,0,0,27.1-4.64,53.76,53.76,0,0,0,20.27-13.55,61,61,0,0,0,12.81-22,90.46,90.46,0,0,0,4.52-29.66V2322.44a7.12,7.12,0,0,1,1.47-4.39,10.3,10.3,0,0,1,5.12-3.18,51.9,51.9,0,0,1,9.89-1.95,136,136,0,0,1,15.5-.73,129.48,129.48,0,0,1,15.26.73,51.71,51.71,0,0,1,9.65,1.95,10.3,10.3,0,0,1,5.12,3.18,7.12,7.12,0,0,1,1.47,4.39Z"/><path d="M1031.65,2506.77q0,14.16-2.69,19.77t-8.54,5.62H918.86q-6.11,0-8.79-5.74t-2.69-19.65q0-13.67,2.69-19.29a9.1,9.1,0,0,1,8.79-5.61h101.56a9.63,9.63,0,0,1,5,1.22,9.51,9.51,0,0,1,3.54,4.15,24.5,24.5,0,0,1,2.08,7.81A97.74,97.74,0,0,1,1031.65,2506.77Z"/><path d="M1147.84,2621.27a6.61,6.61,0,0,1-1.47,4.27,10.69,10.69,0,0,1-5,3.05,43.26,43.26,0,0,1-9.4,1.84q-5.87.6-14.89.61t-14.9-.61a43.15,43.15,0,0,1-9.39-1.84,10.73,10.73,0,0,1-5-3.05,6.6,6.6,0,0,1-1.46-4.27v-321a7.14,7.14,0,0,1,1.46-4.4,10.89,10.89,0,0,1,5-3.29,41.54,41.54,0,0,1,9.39-2.08,152.32,152.32,0,0,1,29.79,0,41.65,41.65,0,0,1,9.4,2.08,10.86,10.86,0,0,1,5,3.29,7.15,7.15,0,0,1,1.47,4.4Z"/><path d="M1404.17,2622a6.5,6.5,0,0,1-2.45,5.37c-1.62,1.31-4.19,2.24-7.69,2.81a104,104,0,0,1-15.5.86,105.51,105.51,0,0,1-16-.86c-3.34-.57-5.7-1.5-7.08-2.81a7,7,0,0,1-2.08-5.37v-17.33a99,99,0,0,1-30.64,22.46,89,89,0,0,1-38.2,8.06,106.88,106.88,0,0,1-31.86-4.52,71.56,71.56,0,0,1-25.15-13.43,60.43,60.43,0,0,1-16.48-22.09q-5.86-13.18-5.86-30.76,0-19,7.45-33.09a60.52,60.52,0,0,1,22.21-23.19q14.78-9.15,36.75-13.55t51-4.39h21.24V2477a69.44,69.44,0,0,0-2.07-17.94,30,30,0,0,0-6.84-12.82,28.23,28.23,0,0,0-12.69-7.57,68.05,68.05,0,0,0-19.66-2.44,100.92,100.92,0,0,0-27.46,3.42,157.48,157.48,0,0,0-21.37,7.57q-9.27,4.15-15.5,7.57t-10.13,3.41a7.26,7.26,0,0,1-4.76-1.7,12.35,12.35,0,0,1-3.42-4.89,33,33,0,0,1-2.07-7.81,65.7,65.7,0,0,1-.74-10.25,46.72,46.72,0,0,1,1.22-12,18.46,18.46,0,0,1,4.64-7.93q3.42-3.54,12-7.81a139.35,139.35,0,0,1,20-7.94,185.58,185.58,0,0,1,25-6,166,166,0,0,1,28-2.32q25.63,0,43.83,5t29.9,15.38q11.73,10.38,17.09,26.73t5.38,38.82Zm-60.31-93.26h-23.43a125.64,125.64,0,0,0-25.4,2.2q-10.5,2.19-17.09,6.59a27.16,27.16,0,0,0-9.64,10.62,32,32,0,0,0-3,14.28q0,13.68,8.67,21.49t24,7.81a45.1,45.1,0,0,0,23.81-6.59q10.86-6.6,22.09-19.29Z"/><path d="M1683,2621.27a6.66,6.66,0,0,1-1.46,4.27,10.76,10.76,0,0,1-4.88,3.05,41.56,41.56,0,0,1-9.4,1.84q-6,.6-14.77.61-9,0-15-.61a41.33,41.33,0,0,1-9.4-1.84,10.71,10.71,0,0,1-4.88-3.05,6.61,6.61,0,0,1-1.47-4.27V2497q0-15.87-2.32-24.9a49.14,49.14,0,0,0-6.71-15.5,29.92,29.92,0,0,0-11.35-10,35.36,35.36,0,0,0-16.24-3.54q-11.71,0-23.68,8.54t-24.9,24.91v144.77a6.61,6.61,0,0,1-1.47,4.27,10.69,10.69,0,0,1-5,3.05,43.26,43.26,0,0,1-9.4,1.84q-5.86.6-14.89.61t-14.9-.61a43.38,43.38,0,0,1-9.4-1.84,10.74,10.74,0,0,1-5-3.05,6.61,6.61,0,0,1-1.47-4.27V2403.5a7.52,7.52,0,0,1,1.23-4.28,8.93,8.93,0,0,1,4.39-3,35.32,35.32,0,0,1,8.18-1.83,108.42,108.42,0,0,1,12.57-.61,114.49,114.49,0,0,1,12.94.61,29.72,29.72,0,0,1,7.94,1.83,9,9,0,0,1,4,3,7.52,7.52,0,0,1,1.23,4.28v25.14q18.06-19.53,36.74-29.29a83,83,0,0,1,38.94-9.77q22.22,0,37.47,7.33a65.63,65.63,0,0,1,24.66,19.89,80.85,80.85,0,0,1,13.55,29.42q4.15,16.84,4.15,40.53Z"/><path d="M1818.92,2329.77q0,18.55-7.57,25.63t-28.08,7.08q-20.74,0-28-6.83t-7.2-24.66q0-18.55,7.44-25.76t28.2-7.2q20.51,0,27.83,7T1818.92,2329.77Zm-4.64,291.5a6.61,6.61,0,0,1-1.47,4.27,10.69,10.69,0,0,1-5,3.05,43.26,43.26,0,0,1-9.4,1.84q-5.87.6-14.89.61t-14.9-.61a43.38,43.38,0,0,1-9.4-1.84,10.74,10.74,0,0,1-5-3.05,6.6,6.6,0,0,1-1.46-4.27V2404a6.63,6.63,0,0,1,1.46-4.28,11.59,11.59,0,0,1,5-3.17,42.33,42.33,0,0,1,9.4-2.08,152.32,152.32,0,0,1,29.79,0,42.2,42.2,0,0,1,9.4,2.08,11.53,11.53,0,0,1,5,3.17,6.64,6.64,0,0,1,1.47,4.28Z"/><path d="M2218.31,2403a36.56,36.56,0,0,1-.73,6.59q-.73,3.92-2.69,11.23l-58.1,197a20.81,20.81,0,0,1-3.18,6.72,12.64,12.64,0,0,1-6,4,43.41,43.41,0,0,1-11.47,2q-7.45.48-19.41.49t-19.53-.61a50.36,50.36,0,0,1-11.84-2.08,12.79,12.79,0,0,1-6.23-4,17.58,17.58,0,0,1-2.93-6.47l-36.62-132.32-.49-2.2-.49,2.2-33.69,132.32a19,19,0,0,1-2.81,6.72q-1.83,2.57-6.22,4a49.27,49.27,0,0,1-12,2q-7.57.48-19.54.49-12.21,0-19.65-.61a50.08,50.08,0,0,1-11.72-2.08,12.75,12.75,0,0,1-6.22-4,17.42,17.42,0,0,1-2.93-6.47l-57.62-197a81,81,0,0,1-2.81-11.11,45.75,45.75,0,0,1-.61-6.71,7,7,0,0,1,1.34-4.27,9.32,9.32,0,0,1,4.89-2.93,45.5,45.5,0,0,1,9.52-1.59q6-.48,15-.49,9.76,0,15.87.49a39,39,0,0,1,9.52,1.71,9.06,9.06,0,0,1,4.76,3.29,16.6,16.6,0,0,1,2.08,5L1969,2564.14l.49,2.93.49-2.93,40.53-159.91a13.47,13.47,0,0,1,2.32-5,10.59,10.59,0,0,1,4.76-3.29,34,34,0,0,1,8.91-1.71q5.73-.48,14.77-.49a143.22,143.22,0,0,1,14.65.61,44.85,44.85,0,0,1,8.91,1.71,9.2,9.2,0,0,1,4.64,2.93,14.13,14.13,0,0,1,2.07,4.27L2115,2564.39l.73,2.68.49-2.93,41.5-159.91a12.05,12.05,0,0,1,2-5,9.78,9.78,0,0,1,4.88-3.29,38.26,38.26,0,0,1,9.28-1.71q5.85-.48,14.89-.49t14.77.49a40.31,40.31,0,0,1,9,1.59,8.42,8.42,0,0,1,4.52,2.93A7.54,7.54,0,0,1,2218.31,2403Z"/><path d="M2452.66,2622a6.49,6.49,0,0,1-2.44,5.37c-1.63,1.31-4.19,2.24-7.69,2.81a104,104,0,0,1-15.5.86,105.51,105.51,0,0,1-16-.86c-3.34-.57-5.7-1.5-7.08-2.81a7,7,0,0,1-2.08-5.37v-17.33a99,99,0,0,1-30.64,22.46,89,89,0,0,1-38.2,8.06,107,107,0,0,1-31.87-4.52,71.6,71.6,0,0,1-25.14-13.43,60.43,60.43,0,0,1-16.48-22.09q-5.87-13.18-5.86-30.76,0-19,7.44-33.09a60.62,60.62,0,0,1,22.22-23.19q14.78-9.15,36.75-13.55t51-4.39h21.24V2477a69.44,69.44,0,0,0-2.07-17.94,30,30,0,0,0-6.84-12.82,28.21,28.21,0,0,0-12.7-7.57,68,68,0,0,0-19.65-2.44,101.05,101.05,0,0,0-27.47,3.42,157.81,157.81,0,0,0-21.36,7.57q-9.27,4.15-15.5,7.57t-10.13,3.41a7.26,7.26,0,0,1-4.76-1.7,12.35,12.35,0,0,1-3.42-4.89,33.5,33.5,0,0,1-2.08-7.81,67,67,0,0,1-.73-10.25,46.72,46.72,0,0,1,1.22-12,18.46,18.46,0,0,1,4.64-7.93q3.42-3.54,12-7.81a140.29,140.29,0,0,1,20-7.94,185.74,185.74,0,0,1,25-6,166,166,0,0,1,27.95-2.32q25.64,0,43.82,5T2430.2,2410q11.73,10.38,17.09,26.73t5.37,38.82Zm-60.3-93.26h-23.44a125.53,125.53,0,0,0-25.39,2.2q-10.5,2.19-17.09,6.59a27.16,27.16,0,0,0-9.64,10.62,32,32,0,0,0-3.05,14.28q0,13.68,8.66,21.49t24.05,7.81a45.1,45.1,0,0,0,23.81-6.59q10.86-6.6,22.09-19.29Z"/></g><g id="sen"><circle class="cls-1" cx="1516.43" cy="1897.35" r="64.57"/><circle class="cls-2" cx="971.75" cy="1345.22" r="59.87"/><circle class="cls-3" cx="1469.76" cy="1536.5" r="81.28"/><circle class="cls-3" cx="1660.33" cy="1663.38" r="61.63"/><circle class="cls-1" cx="1598.7" cy="1253.1" r="52.24"/><circle class="cls-3" cx="1156.61" cy="1000.26" r="73.96"/><circle class="cls-3" cx="1469.76" cy="764.54" r="85.23"/><circle class="cls-3" cx="2138" cy="1416.17" r="73.96"/><circle class="cls-3" cx="1189.45" cy="1777.74" r="59.28"/><circle class="cls-3" cx="853.01" cy="740" r="60.69"/><circle class="cls-3" cx="734.28" cy="1062.48" r="62.22"/><polyline class="cls-4" points="1004.69 1395.22 1058 1536.5 1256.18 1576.41 1522 1915.48"/><polyline class="cls-5" points="1156.61 1000.26 1156.61 1305.34 1438.07 1522.99"/><polyline class="cls-6" points="853.01 740 846.2 972.97 977.24 1062.48 971.75 1285.35"/><circle class="cls-4" cx="2012.39" cy="1261.63" r="60.77"/><circle class="cls-4" cx="2055.83" cy="892.61" r="97.43"/><polyline class="cls-5" points="1979.52 1305.34 1660.33 1663.38 1540 1915.48"/><circle class="cls-4" cx="896.83" cy="1656.83" r="80.41"/><polyline class="cls-7" points="1598.7 1253.1 1745.53 1261.63 1999.48 966.04"/><polyline class="cls-8" points="1660.33 1663.38 1899.16 1657.58 2132.13 1413.83"/><line class="cls-9" x1="734.28" y1="1062.48" x2="918.64" y2="1317.57"/><polygon class="cls-3" points="2249.84 1490.78 2249.84 1925.57 1847.23 1925.57 2249.84 1490.78"/><polyline class="cls-4" points="1452.44 758.68 1598.7 926.31 1598.7 1253.1 1461.21 1506.94 1522 1915.48 1324.48 1915.48 1179.45 1785.37 963.01 1687.42"/></g></svg>